<svg xmlns="http://www.w3.org/2000/svg" width="28" height="28" viewBox="-2 -2 28 28" id="instagram-black" y="308"><path fill-rule="evenodd" clip-rule="evenodd" d="M12 3c3 0 3.3 0 4.5.1 1.1.1 1.7.2 2.1.4.5.2.9.4 1.2.8.4.4.6.8.8 1.2.1.3.3 1 .3 2C21 8.7 21 9 21 12s0 3.3-.1 4.5c-.1 1.1-.2 1.7-.4 2.1-.2.5-.4.9-.8 1.2-.4.4-.8.6-1.2.8-.4.1-1 .3-2.1.4-1.2.1-1.5.1-4.5.1s-3.3 0-4.5-.1c-1.1-.1-1.7-.2-2.1-.4-.5-.2-.9-.4-1.2-.8-.4-.4-.6-.8-.8-1.2-.1-.4-.3-1-.3-2.1V12 7.5c0-1 .2-1.7.3-2 .3-.5.5-.9.9-1.2.4-.4.8-.6 1.2-.9.5-.2 1.1-.4 2.1-.4H12zm0-2H7.4c-1.2 0-2 .2-2.7.5-.7.3-1.3.7-1.9 1.3-.6.7-1 1.3-1.3 2S1 6.3 1 7.4V12c0 3 0 3.4.1 4.6s.2 2 .5 2.7c.3.8.7 1.3 1.2 1.9.6.6 1.2 1 1.9 1.2.7.3 1.5.5 2.7.5 1.2.1 1.6.1 4.6.1s3.4 0 4.6-.1c1.2-.1 2-.2 2.7-.5.8-.3 1.3-.7 1.9-1.2.6-.6 1-1.2 1.2-1.9.3-.7.5-1.5.5-2.7.1-1.2.1-1.6.1-4.6s0-3.4-.1-4.6c-.1-1.2-.2-2-.5-2.7-.3-.8-.7-1.3-1.2-1.9-.6-.6-1.2-1-1.9-1.2-.7-.3-1.5-.5-2.7-.5C15.4 1 15 1 12 1zm0 5.3c-3.1 0-5.7 2.6-5.7 5.7s2.6 5.7 5.7 5.7 5.7-2.6 5.7-5.7-2.6-5.7-5.7-5.7zm0 9.4c-2 0-3.7-1.7-3.7-3.7S10 8.3 12 8.3s3.7 1.7 3.7 3.7-1.7 3.7-3.7 3.7zm7.2-9.6c0 .8-.6 1.3-1.3 1.3-.7 0-1.3-.6-1.3-1.3 0-.8.6-1.3 1.3-1.3.7 0 1.3.6 1.3 1.3z"/></svg>