<svg xmlns="http://www.w3.org/2000/svg" width="28" height="28" viewBox="-2 -2 28 28" id="twitter-black" y="532"><path fill-rule="evenodd" clip-rule="evenodd" d="M22.9 12c0 6.1-4.9 10.9-10.9 10.9S1.1 18.1 1.1 12 5.9 1.1 12 1.1 22.9 5.9 22.9 12zm-5.4-1.8c0 3.5-2.6 7.5-7.5 7.5-1.4 0-2.9-.4-4.1-1.2.2 0 .4.1.7.1 1.2 0 2.4-.4 3.3-1.2-1.2 0-2.1-.8-2.5-1.8.1 0 .3.1.5.1s.5 0 .8-.1c-1.2-.2-2.1-1.3-2.1-2.6.3.2.8.3 1.2.3-.9-.3-1.3-1.2-1.3-2.1 0-.5.1-1 .3-1.3 1.3 1.6 3.3 2.6 5.5 2.8-.1-.2-.1-.3-.1-.6 0-1.4 1.2-2.6 2.6-2.6.8 0 1.4.3 1.9.8.7-.1 1.3-.3 1.8-.7-.2.6-.6 1.2-1.2 1.4.5-.1 1-.2 1.5-.4-.3.5-.8 1-1.3 1.4v.2z"/></svg>